<svg xmlns="http://www.w3.org/2000/svg" width="256" height="256"><path fill="#1976D2" fill-opacity=".122" fill-rule="evenodd" d="M0 128.004v128.004l128.25-.254 128.25-.254.254-127.75L257.008 0H0zm.485.496c0 70.4.119 99.053.265 63.672s.146-92.98 0-128S.485 58.1.485 128.5"/><path fill="#1976D2" fill-opacity=".142" fill-rule="evenodd" d="M98.5 55.861c-4.284 2.646-6.147 5.073-7.395 9.639-1.35 4.937-1.481 84.171-.149 89.915.537 2.316 2.372 5.38 4.492 7.5l3.584 3.585 47.234.262c45.751.254 47.336.2 50.493-1.741 1.793-1.101 4.153-3.469 5.246-5.262 1.907-3.127 1.988-5.118 1.988-49.259s-.081-46.132-1.988-49.259c-1.093-1.793-3.453-4.153-5.246-5.246-3.127-1.907-5.118-1.988-49.259-1.988-43.038 0-46.193.12-49 1.854M134 88.339 121.5 95.6v29.8l12.5 7.248c6.875 3.986 12.84 7.271 13.255 7.3s6.378-3.152 13.25-7.069l12.495-7.12V95.377l-12.199-6.939c-6.709-3.816-12.672-7.033-13.25-7.149s-6.676 3.057-13.551 7.05m-65.097 2.674C59.102 92.671 54 97.912 54 106.322c0 2.523 2.258 23.141 5.017 45.819 3.76 30.897 5.465 42 6.804 44.293 2.702 4.625 7.717 7.566 12.903 7.566 4.659 0 85.566-9.662 88.448-10.563 2.244-.701 8.828-8.074 8.828-9.886 0-1.227-5.791-1.488-38.75-1.747-38.693-.304-38.757-.308-43.673-2.727-6.28-3.091-12.186-8.997-14.928-14.928-2.047-4.428-2.164-6.304-2.458-39.399-.232-26.125-.605-34.721-1.5-34.632-.655.064-3.26.467-5.788.895"/><path fill="#1976D2" fill-opacity=".615" fill-rule="evenodd" d="M99.218 55.663c-1.805.89-4.28 3.017-5.5 4.727-2.203 3.088-2.22 3.427-2.497 48.897-.309 50.727-.352 50.343 6.152 54.983l3.127 2.23h94l3.127-2.23c6.4-4.565 6.375-4.354 6.357-53.921-.017-44.568-.031-44.873-2.25-48.745-4.439-7.742-3.476-7.607-54.218-7.581-39.418.02-45.424.224-48.298 1.64m34.032 32.636L121 95.415v30.184l12.914 7.352c7.102 4.043 13.216 7.352 13.586 7.352s6.484-3.309 13.586-7.352L174 125.599l-.003-15.049-.004-15.05-12.807-7.25c-7.044-3.987-13.455-7.209-14.247-7.158s-6.951 3.294-13.689 7.207m-67.127 3.703c-4.743 1.12-8.305 3.987-10.535 8.48l-1.913 3.853 5.281 44.082c3.158 26.372 5.885 45.397 6.785 47.353 1.674 3.634 5.501 6.751 9.535 7.763 3.962.994 88.444-9.388 92.711-11.394 3.141-1.477 8.013-7.123 8.013-9.287 0-.469-16.793-.852-37.318-.852-44.457 0-44.922-.076-53.675-8.839C76.105 164.25 76 163.679 76 124.322V91l-3.25.102c-1.787.057-4.77.462-6.627.9"/><path fill="#1976D2" fill-opacity=".392" fill-rule="evenodd" d="M101.352 55.068c-4.016 1.194-9.078 6.93-9.85 11.161-.328 1.799-.463 22.926-.299 46.949.288 42.313.361 43.764 2.359 46.438 1.134 1.518 3.304 3.688 4.823 4.822 2.696 2.013 3.858 2.062 49.115 2.062s46.419-.049 49.115-2.062c1.519-1.134 3.689-3.304 4.823-4.823 2.013-2.696 2.062-3.858 2.062-49.115s-.049-46.419-2.062-49.115c-1.134-1.519-3.304-3.689-4.822-4.823-2.682-2.004-4.021-2.067-47.438-2.246-25.456-.105-46.033.219-47.826.752M134 87.464l-12.5 7.293v31.462l9 5.194c4.95 2.857 10.819 6.213 13.043 7.458l4.043 2.264 12.957-7.447 12.957-7.448.275-15.545.275-15.546-13.323-7.574c-7.327-4.166-13.526-7.536-13.775-7.489-.248.047-6.077 3.368-12.952 7.378m-66.133 4.554c-7.46 1.26-10.929 4.225-12.872 11.001-.883 3.076 9.283 89.771 10.871 92.718 1.609 2.985 5.662 6.267 8.877 7.189 3.423.982 89.884-9.121 93.187-10.888 2.178-1.166 7.07-6.78 7.07-8.115 0-.546-14.025-.923-34.364-.923-34.36 0-41.788-.555-48.204-3.599-5.263-2.498-11.351-8.997-14.281-15.246L75.5 158.5l-.31-33.75c-.233-25.328-.608-33.721-1.5-33.632-.655.064-3.275.469-5.823.9"/></svg>